<svg width="20" height="21" viewBox="0 0 20 21" fill="none" xmlns="http://www.w3.org/2000/svg">
<path d="M19.4675 9.48081L11.3052 1.48574C10.96 1.14857 10.4925 0.959229 10.005 0.959229C9.51754 0.959229 9.04996 1.14857 8.7048 1.48574L0.546528 9.47395L0.537527 9.48081C0.285183 9.72855 0.111917 10.0429 0.0388723 10.3854C-0.034172 10.728 -0.00383571 11.084 0.126179 11.41C0.256194 11.7359 0.480265 12.0178 0.771048 12.2211C1.06183 12.4244 1.40675 12.5405 1.76372 12.555H1.82073H2.14578V18.433C2.14512 18.711 2.20047 18.9864 2.30865 19.2434C2.41684 19.5004 2.57573 19.734 2.77623 19.9308C2.97673 20.1275 3.21489 20.2836 3.47707 20.39C3.73926 20.4965 4.0203 20.5512 4.30411 20.5511H7.49361C7.64905 20.5511 7.79813 20.4906 7.90804 20.3829C8.01796 20.2753 8.0797 20.1292 8.0797 19.977V15.3647C8.07997 15.1094 8.18364 14.8646 8.36796 14.684C8.55227 14.5035 8.80219 14.4019 9.06286 14.4017H10.9452C11.2058 14.4019 11.4557 14.5035 11.6401 14.684C11.8244 14.8646 11.928 15.1094 11.9283 15.3647V19.976C11.9283 20.1283 11.9901 20.2743 12.1 20.3819C12.2099 20.4896 12.359 20.5501 12.5144 20.5501H15.7059C16.2774 20.5496 16.8253 20.327 17.2294 19.9312C17.6335 19.5354 17.8607 18.9987 17.8612 18.4389V12.5609H18.1613C18.5251 12.5604 18.8807 12.4543 19.183 12.256C19.4854 12.0578 19.721 11.7762 19.8601 11.4469C19.9992 11.1175 20.0356 10.7552 19.9647 10.4056C19.8937 10.0561 19.7186 9.73494 19.4615 9.48277L19.4675 9.48081Z" fill="#FF0D4A"/>
</svg>
