<svg width="46" height="46" viewBox="0 0 46 46" fill="none" xmlns="http://www.w3.org/2000/svg">
<rect width="46" height="46" rx="10" fill="#FF0D4A"/>
<path d="M20.5538 31.5381L20.5433 31.52L20.5231 31.5147C15.7945 30.2813 12.3897 25.9164 12.3897 20.9826C12.3897 15.0049 17.2604 10.1185 23.2182 10.1185C29.2232 10.1185 34.047 15.0046 34.0943 21.0306C34.0941 26.0117 30.6421 30.3763 25.8664 31.5622L25.8451 31.5675L25.8346 31.5868L23.7919 35.3241L23.7916 35.3239L23.7893 35.3296C23.7025 35.5474 23.4844 35.6794 23.2657 35.6794C23.1318 35.6794 23.0233 35.6459 22.9378 35.5869C22.8523 35.5279 22.7866 35.4412 22.7421 35.3296L22.7426 35.3294L22.739 35.3231L20.5538 31.5381ZM29.6513 21.3103L29.6936 21.3382L29.7209 21.2955L30.576 19.961L30.6028 19.9192L30.5612 19.8922L23.6751 15.4134C23.5475 15.3118 23.3946 15.2611 23.236 15.2611C23.0769 15.2611 22.9131 15.3121 22.7632 15.4123C22.7631 15.4123 22.763 15.4124 22.7629 15.4125L15.8753 19.8922L15.8326 19.9199L15.8611 19.9621L16.7637 21.2966L16.7914 21.3375L16.8327 21.3103L18.7028 20.0747V25.8916V25.9416H18.7528H27.7312H27.7812V25.8916V20.0747L29.6513 21.3103ZM36.8499 21.0198L36.8499 21.0194L36.8498 21.0089C36.8354 19.1687 36.4673 17.3835 35.7557 15.7028C35.0668 14.0757 34.0865 12.6156 32.8419 11.3632C31.5935 10.1069 30.1396 9.12044 28.5207 8.43138C26.8414 7.71659 25.0573 7.35417 23.2182 7.35417C21.3902 7.35417 19.6128 7.71648 17.9357 8.43099C16.3202 9.11925 14.8686 10.1029 13.6212 11.3544C12.3737 12.6059 11.3934 14.0623 10.7074 15.6829C9.99519 17.3655 9.63408 19.1486 9.63408 20.9826C9.63408 22.5056 9.89035 24.0095 10.3957 25.4524C10.8852 26.85 11.5956 28.1554 12.5072 29.3323C13.4164 30.5062 14.4996 31.5185 15.7265 32.341C16.6579 32.9653 17.6539 33.4678 18.6992 33.8414L20.292 36.6003C20.5434 37.1122 20.9145 37.546 21.3766 37.8647C21.9259 38.2436 22.5793 38.4436 23.2657 38.4436C23.9078 38.4436 24.5332 38.258 25.074 37.9069C25.5881 37.5732 25.9933 37.1125 26.2559 36.5657L27.7176 33.8913C28.7568 33.5287 29.748 33.0392 30.6763 32.4294C31.9187 31.6132 33.0158 30.6036 33.9372 29.4284C34.8613 28.2497 35.5816 26.9392 36.0779 25.5331C36.5901 24.0819 36.8499 22.5669 36.8499 21.0302L36.8499 21.0198ZM25.0256 19.9817V23.1773H21.4584V19.9817V19.5553L23.2182 18.4108L25.0256 19.5862V19.9817Z" fill="white" stroke="white" stroke-width="0.1"/>
</svg>
