<svg width="24" height="24" viewBox="0 0 24 24" fill="none" xmlns="http://www.w3.org/2000/svg">
<path d="M19.5 2H4.5C3.11929 2 2 3.11929 2 4.5C2 5.88071 3.11929 7 4.5 7H19.5C20.8807 7 22 5.88071 22 4.5C22 3.11929 20.8807 2 19.5 2Z" fill="#979797"/>
<path d="M19.617 9.14197H4.381C3.06601 9.14197 2 10.2078 2 11.5225C2 12.8372 3.06601 13.903 4.381 13.903H19.617C20.932 13.903 21.998 12.8372 21.998 11.5225C21.998 10.2078 20.932 9.14197 19.617 9.14197Z" fill="#979797"/>
<path d="M19.5 16H4.5C3.11929 16 2 17.1193 2 18.5C2 19.8807 3.11929 21 4.5 21H19.5C20.8807 21 22 19.8807 22 18.5C22 17.1193 20.8807 16 19.5 16Z" fill="#979797"/>
</svg>
