<svg width="9" height="18" viewBox="0 0 9 18" fill="none" xmlns="http://www.w3.org/2000/svg">
<path d="M4.1725 2.4225L6.6325 4.8825C7.0225 5.2725 7.6525 5.2725 8.0425 4.8825C8.4325 4.4925 8.4325 3.8625 8.0425 3.4725L4.8725 0.2925C4.4825 -0.0975 3.8525 -0.0975 3.4625 0.2925L0.2925 3.4725C-0.0975 3.8625 -0.0975 4.4925 0.2925 4.8825C0.6825 5.2725 1.3125 5.2725 1.7025 4.8825L4.1725 2.4225ZM4.1725 14.7625L1.7125 12.3025C1.3225 11.9125 0.6925 11.9125 0.3025 12.3025C-0.0874998 12.6925 -0.0874998 13.3225 0.3025 13.7125L3.4725 16.8925C3.8625 17.2825 4.4925 17.2825 4.8825 16.8925L8.0525 13.7225C8.4425 13.3325 8.4425 12.7025 8.0525 12.3125C7.6625 11.9225 7.0325 11.9225 6.6425 12.3125L4.1725 14.7625Z" fill="black"/>
</svg>
